<svg width="30" height="30" viewBox="0 0 30 30" fill="none" xmlns="http://www.w3.org/2000/svg">
<path d="M12.3511 0H17.6489C18.3813 0 19.0454 0.297852 19.5264 0.778809C20.0073 1.25977 20.3052 1.92383 20.3052 2.65625V9.69482H27.3438C28.0762 9.69482 28.7402 9.99268 29.2212 10.4736C29.7021 10.9546 30 11.6187 30 12.3511V17.6489C30 18.3813 29.7021 19.0454 29.2212 19.5264C28.7402 20.0073 28.0762 20.3052 27.3438 20.3052H20.3052V27.3438C20.3052 28.0762 20.0073 28.7402 19.5264 29.2212C19.0454 29.7021 18.3813 30 17.6489 30H12.3511C11.6187 30 10.9546 29.7021 10.4736 29.2212C9.99268 28.7402 9.69482 28.0762 9.69482 27.3438V20.3052H2.65625C1.92383 20.3052 1.25977 20.0073 0.778809 19.5264C0.297852 19.0454 0 18.3789 0 17.6489V12.3511C0 11.6187 0.297852 10.9546 0.778809 10.4736C1.25977 9.99268 1.92383 9.69482 2.65625 9.69482H9.69482V2.65625C9.69482 1.92383 9.99268 1.25977 10.4736 0.778809C10.9546 0.297852 11.6211 0 12.3511 0ZM17.6489 1.71631H12.3511C12.0923 1.71631 11.8579 1.82129 11.687 1.99463C11.5161 2.16553 11.4087 2.3999 11.4087 2.65869V10.5542C11.4087 11.0278 11.0254 11.4111 10.5518 11.4111H2.65625C2.39746 11.4111 2.16309 11.5161 1.99219 11.687C1.82129 11.8579 1.71387 12.0923 1.71387 12.3511V17.6489C1.71387 17.9077 1.81885 18.1421 1.99219 18.313C2.16309 18.4839 2.39746 18.5913 2.65625 18.5913H10.5518C11.0254 18.5913 11.4087 18.9746 11.4087 19.4482V27.3438C11.4087 27.6025 11.5137 27.8369 11.687 28.0078C11.8579 28.1787 12.0923 28.2861 12.3511 28.2861H17.6489C17.9077 28.2861 18.1421 28.1812 18.313 28.0078C18.4839 27.8369 18.5889 27.6025 18.5889 27.3438V19.4482C18.5889 18.9746 18.9722 18.5913 19.4458 18.5913H27.3438C27.6025 18.5913 27.8369 18.4863 28.0078 18.313C28.1787 18.1421 28.2861 17.9077 28.2861 17.6489V12.3511C28.2861 12.0923 28.1812 11.8579 28.0078 11.687C27.8369 11.5161 27.6025 11.4111 27.3438 11.4111H19.4482C18.9746 11.4111 18.5913 11.0278 18.5913 10.5542V2.65625C18.5913 2.39746 18.4863 2.16309 18.3154 1.99219C18.1421 1.82129 17.9077 1.71631 17.6489 1.71631Z" fill="white"/>
</svg>
