<svg width="30" height="30" viewBox="0 0 30 30" fill="none" xmlns="http://www.w3.org/2000/svg">
<path fill-rule="evenodd" clip-rule="evenodd" d="M12.0927 5.16304C11.4899 3.79586 10.9506 2.41646 10.4906 1.01265C12.1974 -0.427777 18.7869 -0.237348 20.6841 0.99068L18.9297 4.20113C19.8751 3.24654 20.1924 2.85591 20.7539 2.32369C20.9918 2.44332 21.2139 2.57759 21.4233 2.72408C21.9214 3.07076 22.3687 3.4565 22.4576 3.99117C22.5147 4.33785 22.3878 4.69185 21.9849 5.05318L17.9588 8.66158C17.4417 8.59566 16.9341 8.50045 16.4424 8.36617C16.6708 7.95357 16.9468 7.49703 17.1752 7.08443L15.7095 8.30025C14.1835 8.05123 12.9525 8.20015 11.8104 8.66646L7.72408 4.89449C7.48296 4.66988 7.37192 4.44527 7.37192 4.22066C7.37509 3.31002 9.13905 2.52144 10.0686 2.22359L12.0927 5.16304ZM17.3275 11.977L16.5312 9.17183C19.9449 9.66011 25.4176 15.0044 27.1847 17.4336C28.0858 18.6738 28.8789 20.041 29.5261 21.5669C30.8142 25.2631 29.5737 28.7202 24.3643 29.5258C21.0997 30.0312 15.0115 30.0654 11.5788 29.9287C7.88905 29.7822 2.17522 29.7871 0.684102 26.8696C-1.72389 22.1626 2.68918 16.5546 6.71202 13.122C7.24184 12.6704 7.78753 12.2504 8.35542 11.8598C9.81799 10.8686 11.3979 9.69429 13.2793 9.20357L11.4582 11.811L14.101 9.11568H15.4937L17.3275 11.977ZM15.6302 14.2793V14.7749C16.3123 14.831 16.8992 14.9384 17.3878 15.0996C17.8764 15.2631 18.3015 15.5073 18.6663 15.8369C18.955 16.0883 19.1771 16.3471 19.3326 16.6108C19.488 16.8769 19.5674 17.1186 19.5674 17.3408C19.5674 17.5874 19.45 17.7998 19.2184 17.978C18.9836 18.1562 18.7012 18.2465 18.3681 18.2465C17.7399 18.2465 17.3338 17.9853 17.1498 17.4653C16.9373 16.8525 16.4328 16.4423 15.627 16.2421V19.3061C16.417 19.4721 17.0515 19.6259 17.5179 19.7627C17.9874 19.8994 18.4094 20.0971 18.7774 20.3584C19.174 20.6269 19.4785 20.9516 19.6943 21.3252C19.9068 21.7011 20.0147 22.1113 20.0147 22.5581C20.0147 23.1171 19.8465 23.642 19.5007 24.1279C19.1581 24.6186 18.6536 25.0141 17.9906 25.3266C17.3243 25.6367 16.5375 25.8198 15.6238 25.8759V26.3764C15.6238 26.6645 15.5858 26.8769 15.5128 27.0087C15.4398 27.1406 15.2812 27.2065 15.0305 27.2065C14.8021 27.2065 14.6403 27.1528 14.5483 27.0454C14.4563 26.9379 14.4119 26.7695 14.4119 26.5424V25.8881C13.6663 25.8247 13.0128 25.6904 12.4544 25.4829C11.896 25.2778 11.4297 25.0214 11.0553 24.7138C10.6841 24.4038 10.4049 24.0864 10.2304 23.7568C10.0496 23.4248 9.96392 23.0976 9.96392 22.7802C9.96392 22.5459 10.0813 22.3335 10.3224 22.1455C10.5604 21.9575 10.8586 21.8623 11.2139 21.8623C11.5026 21.8623 11.7437 21.9135 11.9436 22.0161C12.1403 22.1186 12.2767 22.2651 12.3561 22.4506C12.5274 22.8535 12.6765 23.1611 12.8034 23.3759C12.9335 23.5883 13.127 23.7861 13.384 23.9619C13.641 24.1377 13.9836 24.2744 14.4119 24.3671V20.9443C13.5553 20.7612 12.8446 20.561 12.2704 20.3364C11.6962 20.1118 11.2298 19.7968 10.8745 19.3842C10.5191 18.9716 10.3383 18.4419 10.3383 17.7949C10.3383 16.9502 10.6873 16.2568 11.3852 15.7197C12.0832 15.1801 13.0921 14.8652 14.4119 14.7773V14.2963C14.4119 13.8837 14.6149 13.6787 15.0147 13.6787C15.4271 13.6762 15.6302 13.8764 15.6302 14.2793ZM14.4151 19.0302V16.2104C13.8789 16.3325 13.4601 16.4936 13.1619 16.6962C12.8605 16.8964 12.7114 17.2041 12.7114 17.6118C12.7114 17.9975 12.851 18.2929 13.1333 18.4907C13.4125 18.6884 13.8408 18.8691 14.4151 19.0302ZM15.6302 21.2153V24.4428C16.2742 24.3452 16.7691 24.1474 17.1213 23.8471C17.4703 23.5444 17.6479 23.1977 17.6479 22.7998C17.6479 22.3725 17.4766 22.0429 17.134 21.8086C16.7945 21.5742 16.2932 21.3764 15.6302 21.2153Z" fill="white"/>
</svg>
