<svg width="30" height="30" viewBox="0 0 30 30" fill="none" xmlns="http://www.w3.org/2000/svg">
<path d="M28.3628 25.1976V21.7745H24.1944H20.0271V25.1976L18.3894 25.9424V27.1328H24.1944H30V25.9424L28.3628 25.1976ZM26.8738 25.1976H24.1944H21.5156V23.8579H24.1944H26.8738V25.1976Z" fill="white"/>
<path d="M20.2635 27.7284H18.9238V29.9611H20.2635V27.7284Z" fill="white"/>
<path d="M29.4655 27.7284H28.1258V29.9611H29.4655V27.7284Z" fill="white"/>
<path d="M27.242 27.7284H25.9017V28.9555H27.242V27.7284Z" fill="white"/>
<path d="M22.4871 27.7284H21.1474V28.9555H22.4871V27.7284Z" fill="white"/>
<path d="M20.7691 19.1688C22.9588 18.3391 24.5184 16.2286 24.5184 13.7482C24.5184 12.1756 23.8902 10.7516 22.8739 9.70709C22.9107 9.43229 22.9368 9.15514 22.9368 8.87072C22.9368 5.70666 20.5621 3.10076 17.4988 2.72635C15.9588 1.07682 13.7714 0.0390625 11.3363 0.0390625C6.67705 0.0390625 2.89992 3.81607 2.89992 8.47539C2.89992 8.50029 2.90332 8.52402 2.90332 8.54834C1.15195 9.73311 0 11.7378 0 14.0118C0 17.1295 2.16703 19.7354 5.07545 20.4208C5.66531 21.8634 7.08023 22.8813 8.73551 22.8813C9.35244 22.8813 9.93381 22.7359 10.4541 22.4843V29.961H14.9849V25.0523L16.7522 22.0335C18.5607 21.9019 20.0887 20.7617 20.7691 19.1688ZM12.529 20.039C12.5669 20.0933 12.6076 20.1459 12.6483 20.1985L12.4476 20.28C12.4764 20.2002 12.5046 20.1205 12.529 20.039ZM13.9467 23.7313V21.36C14.3664 21.6146 14.8278 21.8068 15.3198 21.9217L13.9467 23.7313Z" fill="white"/>
</svg>
