<svg width="30" height="30" viewBox="0 0 30 30" fill="none" xmlns="http://www.w3.org/2000/svg">
<path d="M28.6153 11.6053C28.5075 11.4234 28.3116 11.3034 28.0875 11.3034C28.0641 11.3034 28.0416 11.3043 28.0191 11.3071H28.0219C27.8147 11.3118 27.57 11.3146 27.3253 11.3146C24.0159 11.3146 20.8284 10.7906 17.8425 9.8212L18.0591 9.88213C18.5203 7.91901 18.8709 5.58557 19.0378 3.20057L19.0463 3.05713C19.0472 3.04213 19.0481 3.02432 19.0481 3.00745C19.0481 2.61932 18.7331 2.30432 18.345 2.30432C18.2644 2.30432 18.1866 2.31745 18.1144 2.34276L18.1191 2.34088C15.4163 3.26901 12.3009 3.80526 9.06094 3.80526C6.59532 3.80526 4.20282 3.49495 1.91907 2.91088L2.11782 2.95401C2.07 2.94276 2.01563 2.9362 1.96032 2.9362C1.77563 2.9362 1.60688 3.00651 1.48032 3.12182L1.48125 3.12088C1.34157 3.25026 1.25438 3.43401 1.25438 3.63838C1.25438 3.67401 1.25719 3.70963 1.26188 3.74432V3.74057C2.66532 13.2403 5.7825 19.2674 9.64782 20.0709C10.3519 24.1987 12.0178 26.8621 14.5434 27.539C14.9128 27.6412 15.3366 27.7003 15.7734 27.7003C15.7744 27.7003 15.7763 27.7003 15.7772 27.7003C20.0878 27.7003 24.9272 21.9778 28.695 12.2624C28.725 12.1874 28.7419 12.0993 28.7419 12.0084C28.7419 11.8565 28.6941 11.7159 28.6125 11.6015L28.6144 11.6034L28.6153 11.6053ZM2.81157 4.54682C4.70063 4.96963 6.87094 5.21151 9.09751 5.21151C12.1144 5.21151 15.0272 4.76713 17.775 3.93932L17.5622 3.99463C17.3738 6.05713 17.0766 7.91338 16.6659 9.72557L16.7213 9.43495C14.5031 8.62401 12.6094 7.71463 10.8197 6.64776L10.9781 6.73495C10.8759 6.67495 10.7522 6.63932 10.6209 6.63932C10.5122 6.63932 10.4081 6.6637 10.3163 6.70776L10.3209 6.70588C10.1138 6.8062 9.96469 6.99838 9.92813 7.22901L9.92719 7.23276C9.8925 7.45401 9.86907 7.66495 9.83719 7.88338C9.79969 7.71745 9.70594 7.57776 9.57844 7.4812L9.57657 7.48026C9.46219 7.39682 9.31875 7.3462 9.16313 7.3462C8.93063 7.3462 8.72438 7.4587 8.59594 7.63307L8.595 7.63495C8.28188 8.0662 7.81688 8.58088 7.37532 8.58838H7.365C6.94875 8.58838 6.50532 8.13463 6.20625 7.7512C6.07688 7.58245 5.87438 7.47463 5.6475 7.47463C5.25938 7.47463 4.94438 7.78963 4.94438 8.17776C4.94438 8.34463 5.0025 8.49745 5.09907 8.61838L5.09813 8.61745C5.59032 9.38713 6.40782 9.9112 7.35282 9.9937L7.36407 9.99463H7.39969C8.40376 9.88495 9.25032 9.30276 9.72375 8.47776L9.73125 8.46276C9.74344 8.44026 9.75657 8.41401 9.76688 8.38588L9.76875 8.3812C9.53532 10.0903 9.37782 11.7215 9.30938 13.2459C8.70375 13.6387 8.19282 14.1215 7.78219 14.6812L7.77094 14.6971C7.68188 14.8134 7.62844 14.9615 7.62844 15.1209C7.62844 15.509 7.94344 15.824 8.33157 15.824C8.56032 15.824 8.76282 15.7153 8.89125 15.5465L8.89219 15.5446C9.01969 15.3759 9.14157 15.2615 9.26625 15.1218C9.26625 15.1462 9.26625 15.1753 9.26625 15.2053C9.26625 16.3818 9.32907 17.5424 9.45094 18.6862L9.43875 18.5437C7.12969 17.609 4.29938 13.5562 2.8125 4.54495L2.81157 4.54682ZM14.9081 26.1824C11.895 25.3753 9.62532 19.5871 11.1675 8.46276C15.7228 11.0812 21.1706 12.6524 26.9803 12.7228H27.0009C22.7766 23.1159 17.9269 26.9849 14.9081 26.1824ZM13.1316 15.1087C13.5619 14.759 14.1806 14.3662 14.6503 14.4824C15.1491 14.6053 15.5363 15.2887 15.7734 15.8418C15.8841 16.094 16.1316 16.2674 16.4194 16.2674C16.8075 16.2674 17.1225 15.9524 17.1225 15.5643C17.1225 15.464 17.1019 15.3684 17.0634 15.2821L17.0653 15.2868C16.7541 14.2659 15.9881 13.469 15.0084 13.1231L14.985 13.1156C14.8406 13.0921 14.6747 13.079 14.5059 13.079C13.6219 13.079 12.8222 13.4381 12.2438 14.0174C12.0844 14.1478 11.9831 14.3437 11.9831 14.5631C11.9831 14.9512 12.2981 15.2662 12.6863 15.2662C12.8559 15.2662 13.0116 15.2062 13.1325 15.1059L13.1316 15.1068V15.1087ZM19.3547 16.7765C19.7831 16.4278 20.4169 16.0321 20.8706 16.1503C21.3703 16.2731 21.7584 16.9574 21.9947 17.5087C22.1044 17.7618 22.3528 17.9362 22.6416 17.9362C23.0297 17.9362 23.3447 17.6212 23.3447 17.2331C23.3447 17.1328 23.3241 17.0371 23.2856 16.9509L23.2875 16.9556C22.9763 15.9337 22.2084 15.1368 21.2288 14.7909L21.2053 14.7834C21.0591 14.7599 20.8913 14.7459 20.7197 14.7459C19.8375 14.7459 19.0397 15.1049 18.465 15.6862C18.3056 15.8165 18.2053 16.0124 18.2053 16.2318C18.2053 16.6199 18.5203 16.9349 18.9084 16.9349C19.0781 16.9349 19.2347 16.8749 19.3566 16.7737L19.3556 16.7746L19.3547 16.7765ZM18.7753 20.6784C18.27 21.2437 17.5388 21.5981 16.7241 21.5981C16.6716 21.5981 16.6191 21.5962 16.5675 21.5934H16.575C15.9328 21.449 15.3338 20.7656 14.7919 19.5646C14.6784 19.319 14.4347 19.1512 14.1506 19.1512C13.7625 19.1512 13.4475 19.4662 13.4475 19.8543C13.4475 19.9593 13.47 20.0587 13.5113 20.1478L13.5094 20.1431C14.2528 21.7912 15.1538 22.7137 16.2647 22.9649C16.4363 23.0053 16.6341 23.0287 16.8375 23.0287C16.8413 23.0287 16.845 23.0287 16.8488 23.0287C17.9606 22.9453 18.9469 22.4728 19.6875 21.7499L19.6866 21.7509C19.8384 21.6206 19.935 21.4293 19.935 21.2146C19.935 20.8256 19.62 20.5106 19.2309 20.5106C19.0566 20.5106 18.8972 20.5743 18.7744 20.6793L18.7753 20.6784Z" fill="white"/>
</svg>
